<?xml version='1.0' encoding='utf-8'?>
<svg xmlns="http://www.w3.org/2000/svg" version="1.1" id="Layer_12" x="0px" y="0px" width="2429.514px" height="3552.631px" viewBox="0 0 2429.514 3552.631" enable-background="new 0 0 2429.514 3552.631"> <g> <path fill="#FFDC77" d="M1537.952,2966.844c0,259.448-312.306,469.773-312.306,469.773s-312.308-210.325-312.308-469.773 c0-259.447,139.823-469.772,312.308-469.772C1398.128,2497.071,1537.952,2707.396,1537.952,2966.844z"/> <path fill="#FCBC6D" d="M1482.014,2882.701c0,212.979-256.367,385.631-256.367,385.631s-256.368-172.651-256.368-385.631 c0-212.979,114.779-385.63,256.368-385.63C1367.23,2497.071,1482.014,2669.723,1482.014,2882.701z"/> <linearGradient id="SVGID_1_" gradientUnits="userSpaceOnUse" x1="3605.6563" y1="2701.0229" x2="3013.8757" y2="4176.6343" gradientTransform="matrix(0.5782 -0.8159 0.8159 0.5782 -2581.1982 3009.8469)"> <stop offset="0" style="stop-color:#FFF100"/> <stop offset="0.251" style="stop-color:#FFA800"/> <stop offset="0.5181" style="stop-color:#FF6100"/> <stop offset="0.7411" style="stop-color:#FF2C00"/> <stop offset="0.908" style="stop-color:#FF0C00"/> <stop offset="1" style="stop-color:#FF0000"/> </linearGradient> <path fill="url(#SVGID_1_)" d="M1813.955,2346.91c-35.454-48.926-64.435-142.431-64.371-207.764l0.565-604.427 c0.058-65.34,29.136-78.764,64.6-29.825l376.113,322.478c35.456,48.947,64.435,142.446,64.38,207.784l-0.665,700.282 c-0.047,65.352-29.125,78.775-64.591,29.823L1813.955,2346.91z"/> <path opacity="0.2" fill="#F2675A" d="M1854.811,2392.371l335.176,372.891c35.466,48.952,64.544,35.528,64.591-29.823 l0.665-700.282c0.029-27.15-5.02-59.165-13.4-90.838C2120.677,2191.988,1968.08,2367.314,1854.811,2392.371z"/> <linearGradient id="SVGID_2_" gradientUnits="userSpaceOnUse" x1="2761.3672" y1="2052.0991" x2="1785.3066" y2="1721.6223" gradientTransform="matrix(0.5782 -0.8159 0.8159 0.5782 -2581.1982 3009.8469)"> <stop offset="0" style="stop-color:#FFF100"/> <stop offset="0.251" style="stop-color:#FFA800"/> <stop offset="0.5181" style="stop-color:#FF6100"/> <stop offset="0.7411" style="stop-color:#FF2C00"/> <stop offset="0.908" style="stop-color:#FF0C00"/> <stop offset="1" style="stop-color:#FF0000"/> </linearGradient> <path fill="url(#SVGID_2_)" d="M615.63,2345.778c35.547-48.864,64.71-142.301,64.779-207.642l0.572-604.42 c0.061-65.346-28.99-78.812-64.549-29.947l-376.741,321.789c-35.548,48.864-64.696,142.301-64.759,207.634l-0.661,700.294 c-0.068,65.346,28.979,78.812,64.537,29.953L615.63,2345.778z"/> <linearGradient id="SVGID_3_" gradientUnits="userSpaceOnUse" x1="2126.8164" y1="2937.8574" x2="2747.6504" y2="2937.8574" gradientTransform="matrix(0.5782 -0.8159 0.8159 0.5782 -2581.1982 3009.8469)"> <stop offset="0" style="stop-color:#FCB918"/> <stop offset="1" style="stop-color:#E43B8C"/> </linearGradient> <polygon fill="url(#SVGID_3_)" points="1566.289,2844.101 862.364,2843.446 926.104,2536.058 1503.11,2536.596 "/> <g> <linearGradient id="SVGID_4_" gradientUnits="userSpaceOnUse" x1="-1624.2324" y1="2436.9854" x2="-1134.8894" y2="2484.3413" gradientTransform="matrix(0.5782 -0.8159 0.8159 0.5782 -2581.1982 3009.8469)"> <stop offset="0" style="stop-color:#FFF100"/> <stop offset="0.251" style="stop-color:#FFA800"/> <stop offset="0.5181" style="stop-color:#FF6100"/> <stop offset="0.7411" style="stop-color:#FF2C00"/> <stop offset="0.908" style="stop-color:#FF0C00"/> <stop offset="1" style="stop-color:#FF0000"/> </linearGradient> <polygon fill="url(#SVGID_4_)" points="926.104,2536.058 862.364,2843.446 1292.063,2843.848 1046.476,2536.181 "/> <linearGradient id="SVGID_5_" gradientUnits="userSpaceOnUse" x1="730.3696" y1="2625.6523" x2="1219.7217" y2="2673.009"> <stop offset="0" style="stop-color:#FFF100"/> <stop offset="0.251" style="stop-color:#FFA800"/> <stop offset="0.5181" style="stop-color:#FF6100"/> <stop offset="0.7411" style="stop-color:#FF2C00"/> <stop offset="0.908" style="stop-color:#FF0C00"/> <stop offset="1" style="stop-color:#FF0000"/> </linearGradient> <polygon fill="url(#SVGID_5_)" points="1503.11,2536.596 1046.476,2536.181 1292.063,2843.848 1566.289,2844.101 "/> </g> <g> <polygon fill="#8D66AC" points="785.697,2633.274 1040.979,2633.532 854.557,2360.609 "/> <polygon fill="#715499" points="1566.309,2326.575 863.323,2325.92 854.557,2360.609 1040.979,2633.532 1643.334,2634.1 "/> </g> <linearGradient id="SVGID_6_" gradientUnits="userSpaceOnUse" x1="962.4912" y1="342.0459" x2="1404.4888" y2="2532.3135"> <stop offset="0" style="stop-color:#FFF100"/> <stop offset="0.251" style="stop-color:#FFA800"/> <stop offset="0.5181" style="stop-color:#FF6100"/> <stop offset="0.7411" style="stop-color:#FF2C00"/> <stop offset="0.908" style="stop-color:#FF0C00"/> <stop offset="1" style="stop-color:#FF0000"/> </linearGradient> <path fill="url(#SVGID_6_)" d="M1587.186,574.231l-87.329-108.076c-79.892,27.572-174.077,43.474-274.928,43.371 c-106.394-0.103-205.307-17.981-287.852-48.556l-91.311,112.558c-667.023,1024.539-55.46,1979.311-55.46,1979.311l848.584,0.791 C1638.891,2553.63,2252.253,1600.011,1587.186,574.231z"/> <g opacity="0.3"> <path fill="#F2675A" d="M1057.599,494.027c-42.942-8.151-83.394-19.292-120.521-33.057l-91.311,112.558 c-667.023,1024.539-55.46,1979.311-55.46,1979.311l848.584,0.791c0,0,82.496-128.283,154.183-341.354 C1173.032,1704.404,879.184,1004.402,1057.599,494.027z"/> </g> <linearGradient id="SVGID_7_" gradientUnits="userSpaceOnUse" x1="3248.707" y1="2345.0073" x2="1849.9519" y2="3351.8037" gradientTransform="matrix(0.5782 -0.8159 0.8159 0.5782 -2581.1982 3009.8469)"> <stop offset="0" style="stop-color:#FFF100"/> <stop offset="0.251" style="stop-color:#FFA800"/> <stop offset="0.5181" style="stop-color:#FF6100"/> <stop offset="0.7411" style="stop-color:#FF2C00"/> <stop offset="0.908" style="stop-color:#FF0C00"/> <stop offset="1" style="stop-color:#FF0000"/> </linearGradient> <path fill="url(#SVGID_7_)" d="M1291.691,2304.132c-0.402,415.043-35.136,751.463-77.57,751.429 c-42.456-0.033-76.548-336.543-76.151-751.586c0.393-415.028,35.129-751.478,77.573-751.43 C1258,1552.585,1292.077,1889.068,1291.691,2304.132z"/> <path opacity="0.2" fill="#F2675A" d="M1236.493,3023.268c31.632-93.575,54.87-380.115,55.198-719.136 c0.331-356.464-24.754-654.95-58.742-732.166C1220.103,2148.473,1190.204,2645.485,1236.493,3023.268z"/> <path fill="#FF0000" d="M937.077,460.971c38.768,14.365,81.181,25.881,126.256,34.106 c30.351-62.172,93.843-181.246,172.813-267.575l101.387,37.786l-120.617-149.274L937.077,460.971z"/> <path fill="#FF3838" d="M1063.333,495.077c50.896,9.292,105.172,14.395,161.596,14.449 c100.851,0.103,195.036-15.799,274.928-43.371l-162.324-200.867l-101.387-37.786 C1157.176,313.831,1093.684,432.905,1063.333,495.077z"/> <path opacity="0.2" fill="#F2675A" d="M376.684,1708.545l-136.992,117.014c-35.548,48.864-64.696,142.301-64.759,207.634 l-0.661,700.294c-0.068,65.346,28.979,78.812,64.537,29.953l258.407-286.41C370.948,2239.747,327.812,1967.969,376.684,1708.545z"/> <path fill="#FFFFFF" d="M1641.272,866.052c13.851,33.557,27.416,69.767,40.095,108.501c5.967-26.92,13.289-53.564,22.078-79.693 c-10.833-26.558-23.062-52.902-36.714-78.899L1641.272,866.052z"/> <path fill="#FFFFFF" d="M1626.336,747.04c-38.621-59.261-86.06-115.719-144.219-167.242c0,0,59.905,74.193,123.893,207.237 L1626.336,747.04z"/> <path fill="#FFFFFF" d="M1709.994,1066.55c30.363,106.29,51.712,224.347,57.841,353.904c0,0,13.957-184.786-39.153-407.366 C1722.549,1030.939,1716.335,1048.771,1709.994,1066.55z"/> <path fill="#FFFFFF" d="M1950.788,1695.856c0,0,203.313,165.018,198.438,224.368 C2149.226,1920.225,2225.396,1844.413,1950.788,1695.856z"/> <polygon fill="#FFFFFF" points="1451.611,438.252 1289.109,263.521 1404.76,425.359 "/> <polygon fill="#FFFFFF" points="511.304,1638.689 404.09,1729.487 503.602,1673.038 "/> <path fill="#FFFFFF" d="M1170.945,2179.26c0,0,0.759-13.221,2.467-35.849c0.871-11.331,2.177-25.035,3.644-40.972 c1.376-16.576,2.959-35.303,4.737-55.241c1.631-19.853,3.513-40.782,5.33-61.637c1.747-21.215,3.177-42.478,4.401-63.687 c1.434-20.983,2.612-41.716,3.758-61.512c1.266-19.441,2.402-37.874,3.176-55.353c0.383-17.743,0.232-34.899-0.234-50.576 c-0.654-15.784-1.286-29.845-1.651-41.394c-0.716-23.085-0.81-36.641-0.81-36.641s-1.631,6.481-3.814,19.169 c-2.096,12.716-4.59,31.776-6.601,56.73c-1.51,16.57-3.18,35.452-5.041,56.299c-1.468,13.727-2.808,28.4-3.989,44.206 c-1.205,15.819-2.242,32.873-3.12,51.218c-0.87,18.371-1.706,37.915-2.478,58.551c-0.849,20.574-1.521,42.801-2.047,66.368 c-0.271,11.713-0.38,23.7-0.38,36.019c-0.004,12.308-0.006,24.895-0.045,37.657c-0.096,12.729,0.051,25.396,0.532,38.127 C1169.258,2153.438,1169.995,2166.325,1170.945,2179.26z"/> <g> <g> <path fill="#715499" d="M1228.279,1297.337c-171.195-0.149-309.856-139.075-309.694-310.287 c0.045-45.516,9.976-88.684,27.633-127.615c-25.469,44.969-40.092,96.882-40.143,152.234 c-0.171,171.219,138.488,310.144,309.687,310.294c125.701,0.116,233.897-74.624,282.657-182.093 C1445.127,1233.956,1344.132,1297.453,1228.279,1297.337z"/> <path fill="#8D66AC" d="M1216.35,701.975c-115.846-0.109-216.832,63.382-270.132,157.46 c-17.657,38.932-27.588,82.1-27.633,127.615c-0.162,171.212,138.499,310.138,309.694,310.287 c115.853,0.116,216.848-63.381,270.14-157.467c17.649-38.926,27.589-82.087,27.634-127.607 C1526.208,841.064,1387.553,702.139,1216.35,701.975z"/> </g> <path fill="#FFFFFF" d="M1321.431,1196.654c83.745-47.705,127-148.189,98.628-244.663 c-33.122-112.667-151.307-177.167-263.99-144.021c-7.235,2.115-14.276,4.611-21.121,7.429 c-33.48,13.768-61.815,35.406-83.538,62.059C1054.021,998.306,1160.279,1126.158,1321.431,1196.654z"/> <path fill="#FFFFFF" d="M1183.89,1222.182c29.878,4.57,61.212,2.878,92.146-6.193c16.185-4.756,31.345-11.332,45.396-19.334 c-161.151-70.496-267.409-198.349-270.021-319.196c-42.844,52.514-59.909,124.544-39.352,194.487 C1036.08,1153.685,1104.905,1210.032,1183.89,1222.182z"/> <path opacity="0.2" fill="#F2675A" d="M1183.89,1222.182c29.878,4.57,61.212,2.878,92.146-6.193 c16.185-4.756,31.345-11.332,45.396-19.334c-161.151-70.496-267.409-198.349-270.021-319.196 c-42.844,52.514-59.909,124.544-39.352,194.487C1036.08,1153.685,1104.905,1210.032,1183.89,1222.182z"/> <path opacity="0.1" fill="#FF8A8A" d="M1183.89,1222.182c29.878,4.57,61.212,2.878,92.146-6.193 c16.185-4.756,31.345-11.332,45.396-19.334c-161.151-70.496-267.409-198.349-270.021-319.196 c-42.844,52.514-59.909,124.544-39.352,194.487C1036.08,1153.685,1104.905,1210.032,1183.89,1222.182z"/> <path fill="#FFFFFF" d="M1286.813,730.605c0,0,13.351,4.23,33.696,12.519c20.356,8.282,47.207,21.7,72.884,41.292 c13.058,9.974,25.644,21.693,37.45,35.125c11.818,13.46,23.06,28.726,32.893,45.29c10.054,16.938,18.354,34.716,24.208,53.298 c5.694,18.588,8.787,38.148,8.435,58.716c0,0-3.282-34.239-30.996-86.269c-13.768-25.725-33.93-55.488-62.895-85.189 c-13.794-14.163-30.417-27.71-49.452-40.201C1333.431,752.893,1311.333,741.562,1286.813,730.605z"/> <path fill="#FFFFFF" d="M1495.241,984.784c0,0-0.641,7.033-0.28,16.263c-0.084,5.171-0.401,11.012-0.751,16.386 c-0.871,6.304-1.64,12.348-1.008,14.996c0.815,2.065,2.596-1.114,4.107-5.684c1.277-4.026,2.094-9.413,2.322-14.715 c0.137-4.733-0.07-9.803-0.68-14.551C1498.226,992.772,1496.997,988.277,1495.241,984.784z"/> </g> <path fill="#FFFFFF" d="M2179.831,1904.104c0,0,30.521,40.208,10.5,92.122C2190.331,1996.226,2164.581,1974.771,2179.831,1904.104z "/> <path fill="#FFFFFF" d="M1170.09,2188.531c0,0-4.198,10.068-5.412,22.783c-0.354,7.423-0.526,17.969-0.299,28.312 c0.122,10.908,0.966,20.212,2.804,20.839c1.474,0.983,2.093-5.088,2.495-13.33c0.637-8.267,1.251-18.964,1.538-28.357 C1171.155,2203.613,1169.434,2191.074,1170.09,2188.531z"/> </g> </svg>